<svg display="none" xmlns="http://www.w3.org/2000/svg">
  <symbol id="arrow-left" viewBox="0 0 9 14">
    <path d="M2.507 6.973c.096.111.144.173.192.223 1.444 1.497 2.877 2.995 4.322 4.48.239.247.49.483.716.742.43.483.31 1.201-.238 1.486-.335.173-.729.111-1.015-.174-.263-.26-.514-.52-.765-.78-1.6-1.658-3.212-3.316-4.812-4.975C.61 7.666.31 7.345 0 6.998c.036-.05.096-.124.155-.186C2.233 4.659 4.322 2.505 6.4.339c.358-.371.764-.396 1.05-.272.574.247.741 1.002.311 1.485-.274.31-.561.582-.836.879-1.397 1.46-2.794 2.896-4.179 4.344-.071.062-.143.111-.239.198Z" />
  </symbol>
  <symbol id="arrow-right" viewBox="0 0 9 14">
    <path d="M5.496 7.027c-.096-.111-.144-.173-.191-.223C3.86 5.307 2.427 3.81.982 2.324c-.239-.247-.49-.483-.716-.742C-.164 1.099-.044.38.505.096c.334-.173.728-.111 1.014.174.263.26.514.52.765.78 1.6 1.658 3.212 3.316 4.812 4.975.298.309.597.63.907.977-.036.05-.095.124-.155.186-2.078 2.153-4.167 4.307-6.245 6.473-.358.371-.764.396-1.05.272-.574-.248-.741-1.002-.311-1.485.274-.31.561-.582.836-.879 1.397-1.46 2.794-2.896 4.179-4.344.071-.062.143-.111.239-.198Z" />
  </symbol>
</svg>