<svg width="16" height="16" fill="none" xmlns="http://www.w3.org/2000/svg"><path d="M4.47 8.47h1.562v6.498c0 .128.103.232.23.232h2.65c.126 0 .23-.104.23-.232V8.5h1.795a.23.23 0 0 0 .229-.206l.272-2.392a.234.234 0 0 0-.056-.181.23.23 0 0 0-.172-.078H9.141v-1.5c0-.452.241-.68.716-.68h1.353c.127 0 .23-.105.23-.233V1.034a.231.231 0 0 0-.23-.232H9.346C9.333.802 9.304.8 9.26.8c-.324 0-1.448.064-2.336.89-.984.914-.848 2.01-.815 2.2v1.753H4.47a.231.231 0 0 0-.23.232v2.362c0 .128.103.232.23.232Z" fill="#23283B"/><path d="M8.829 15.2h-2.57a.51.51 0 0 1-.51-.51V8.738H4.52a.51.51 0 0 1-.51-.51V5.96a.51.51 0 0 1 .51-.51h1.305V4.077c-.044-.278-.142-1.405.882-2.347C7.645.867 8.827.8 9.167.8c.042 0 .072 0 .09.002h1.802a.51.51 0 0 1 .51.51V3.42a.51.51 0 0 1-.51.51H9.746c-.342 0-.407.129-.407.367V5.45h1.72a.51.51 0 0 1 .506.568L11.3 8.315a.51.51 0 0 1-.506.452H9.338v5.923a.51.51 0 0 1-.51.51Zm-2.506-.574h2.442V8.48c0-.158.128-.287.287-.287h1.685l.25-2.17H9.052a.287.287 0 0 1-.287-.286v-1.44c0-.589.367-.94.981-.94h1.249V1.374H9.236l-.069-.001c-.287 0-1.286.056-2.071.778-.84.773-.732 1.678-.702 1.852a.288.288 0 0 1 .004.05v1.683a.287.287 0 0 1-.287.287H4.584v2.14h1.452c.158 0 .287.128.287.287v6.175Z" fill="#23283B"/><path d="M6.9 11.184a.287.287 0 0 1-.287-.287v-.143a.287.287 0 0 1 .574 0v.143a.287.287 0 0 1-.287.287ZM6.9 14.282a.287.287 0 0 1-.287-.287v-2.18a.287.287 0 1 1 .574 0v2.18a.287.287 0 0 1-.287.287Z" fill="#23283B"/></svg>