<svg width="16" height="16" fill="none" xmlns="http://www.w3.org/2000/svg"><path d="M10.913 14.93H5.087c-2.205 0-4-1.794-4-3.999V5.069c0-2.205 1.795-4 4-4h5.826c2.205 0 4 1.795 4 4v5.862c0 2.205-1.795 4-4 4ZM5.087 2.713A2.359 2.359 0 0 0 2.731 5.07v5.862a2.359 2.359 0 0 0 2.356 2.356h5.826c1.299 0 2.356-1.057 2.356-2.356V5.069c0-1.3-1.057-2.356-2.356-2.356H5.087Z" fill="#23283B"/><path d="M8 11.43A3.433 3.433 0 0 1 4.57 8c0-1.89 1.54-3.43 3.43-3.43 1.89 0 3.43 1.54 3.43 3.43 0 1.89-1.54 3.43-3.43 3.43Zm0-5.256c-1.007 0-1.826.82-1.826 1.826 0 1.007.82 1.826 1.826 1.826 1.007 0 1.826-.82 1.826-1.826 0-1.007-.82-1.826-1.826-1.826ZM11.51 5.096a.606.606 0 1 1 .001-1.213.606.606 0 0 1-.001 1.213Z" fill="#23283B"/><path d="M10.913 15.218H5.087A4.292 4.292 0 0 1 .8 10.931V5.069A4.292 4.292 0 0 1 5.087.782h5.826A4.292 4.292 0 0 1 15.2 5.069v5.862a4.292 4.292 0 0 1-4.287 4.287ZM5.087 1.358a3.716 3.716 0 0 0-3.712 3.711v5.862a3.716 3.716 0 0 0 3.712 3.712h5.826a3.716 3.716 0 0 0 3.712-3.712V5.069a3.716 3.716 0 0 0-3.712-3.712H5.087Zm5.826 12.216H5.087a2.647 2.647 0 0 1-2.643-2.643V5.069a2.646 2.646 0 0 1 2.643-2.643h5.826a2.646 2.646 0 0 1 2.643 2.643v5.862a2.646 2.646 0 0 1-2.643 2.644ZM5.087 3.002A2.07 2.07 0 0 0 3.02 5.069v5.862a2.07 2.07 0 0 0 2.068 2.068h5.826a2.07 2.07 0 0 0 2.068-2.068V5.069a2.07 2.07 0 0 0-2.068-2.068H5.087Z" fill="#23283B"/><path d="M8 11.717A3.72 3.72 0 0 1 4.283 8 3.721 3.721 0 0 1 8 4.283 3.721 3.721 0 0 1 11.717 8 3.72 3.72 0 0 1 8 11.717Zm0-6.859A3.145 3.145 0 0 0 4.858 8 3.145 3.145 0 0 0 8 11.142 3.145 3.145 0 0 0 11.142 8 3.145 3.145 0 0 0 8 4.858Zm0 5.256A2.116 2.116 0 0 1 5.886 8c0-1.165.949-2.114 2.114-2.114s2.114.949 2.114 2.114A2.116 2.116 0 0 1 8 10.114Zm0-3.652A1.54 1.54 0 0 0 6.462 8c0 .848.69 1.538 1.538 1.538A1.54 1.54 0 0 0 9.538 8 1.54 1.54 0 0 0 8 6.462Z" fill="#23283B"/><path d="M11.51 5.383a.894.894 0 0 1 0-1.786.894.894 0 0 1 0 1.786Zm0-1.21a.318.318 0 1 0 0 .636.318.318 0 0 0 0-.637ZM7.54 14.413H4.837a.288.288 0 0 1 0-.575H7.54a.288.288 0 0 1 0 .575ZM8.633 14.413H8.46a.288.288 0 0 1 0-.575h.173a.288.288 0 0 1 0 .575Z" fill="#23283B"/></svg>