<svg width="16" height="16" fill="none" xmlns="http://www.w3.org/2000/svg">
  <g clip-path="url(#a)" fill="#23283B">
    <path d="M13.54 9.181c.51.498 1.048.966 1.505 1.513a4.4 4.4 0 0 1 .539.777c.207.402.02.844-.34.868l-2.239-.002c-.577.048-1.037-.184-1.425-.579-.31-.315-.596-.651-.894-.977a2.114 2.114 0 0 0-.403-.358c-.305-.199-.57-.138-.745.18-.178.325-.218.684-.236 1.045-.024.527-.183.665-.712.69-1.132.053-2.205-.118-3.203-.689-.88-.503-1.561-1.213-2.155-2.017C2.077 8.066 1.192 6.345.397 4.577c-.18-.399-.048-.613.391-.62.73-.014 1.46-.013 2.191-.001.297.004.493.174.608.455.395.97.878 1.895 1.485 2.751.162.228.326.456.56.617.26.178.458.119.58-.17a1.91 1.91 0 0 0 .129-.577c.058-.676.065-1.35-.036-2.023-.062-.42-.299-.692-.718-.772-.214-.04-.182-.12-.079-.242.18-.21.35-.342.687-.342h2.529c.398.079.487.258.541.658l.002 2.81c-.004.155.078.615.357.718.224.073.371-.106.505-.248.606-.642 1.038-1.402 1.424-2.188.171-.346.319-.705.461-1.064.106-.267.272-.398.572-.392l2.434.002c.073 0 .146.001.216.013.41.07.522.247.396.647-.2.629-.588 1.152-.968 1.679-.406.561-.84 1.104-1.243 1.669-.37.516-.34.776.12 1.224Z" />
    <path d="M8.21 12.665c-1.135 0-2.113-.243-2.981-.74-.826-.472-1.542-1.14-2.253-2.104-1.01-1.369-1.895-2.946-2.87-5.114-.136-.303-.141-.559-.014-.759.127-.2.36-.304.69-.31a60.57 60.57 0 0 1 2.202 0c.41.005.728.237.898.652a13.175 13.175 0 0 0 1.45 2.688c.141.2.287.406.48.538h.002a.07.07 0 0 0 .104-.03v-.001c.054-.127.088-.28.105-.482.065-.75.054-1.368-.033-1.947-.044-.298-.187-.453-.463-.506-.078-.014-.316-.06-.396-.286-.08-.223.076-.406.134-.475.202-.236.454-.454.93-.454h2.529c.02 0 .04.001.059.005.637.125.743.527.798.929a.321.321 0 0 1 .003.042l.002 2.81v.009a.735.735 0 0 0 .038.218.146.146 0 0 0 .246.053l.028-.029c.613-.65 1.036-1.432 1.369-2.11.174-.351.324-.721.452-1.041.158-.4.45-.6.87-.592l2.432.002c.084 0 .174.001.268.017.195.033.47.106.619.35.148.243.087.52.027.707-.207.654-.595 1.19-.97 1.71l-.043.06c-.192.265-.392.53-.586.785-.218.288-.444.585-.655.882-.142.197-.203.33-.194.42.009.092.097.216.276.39v.001c.133.13.271.26.405.388.38.36.773.732 1.121 1.15.192.23.41.51.578.834.16.312.163.664.006.942a.749.749 0 0 1-.63.39h-2.225c-.62.047-1.18-.18-1.665-.675a19.36 19.36 0 0 1-.618-.67 40.38 40.38 0 0 0-.285-.316 1.843 1.843 0 0 0-.34-.306c-.073-.047-.138-.07-.175-.06-.035.008-.079.056-.118.127-.139.254-.18.546-.197.906-.03.682-.316.961-1.016.993-.133.006-.265.01-.394.01ZM.64 4.295a.542.542 0 0 0 .048.151c.956 2.125 1.82 3.666 2.802 4.996.657.89 1.31 1.503 2.056 1.93.858.491 1.849.703 3.03.647.245-.011.319-.048.34-.069.018-.016.058-.079.069-.317.019-.389.065-.8.274-1.183.162-.295.373-.401.521-.439.15-.037.389-.043.678.144.192.126.342.278.464.41.098.107.195.217.29.322.193.216.393.44.597.648.36.367.733.521 1.171.485a.287.287 0 0 1 .026-.001h2.225c.02-.002.057-.011.088-.066.038-.066.056-.194-.018-.336a4.147 4.147 0 0 0-.5-.72c-.324-.387-.687-.73-1.07-1.094a38.02 38.02 0 0 1-.412-.394c-.578-.563-.619-.992-.156-1.638.217-.304.445-.605.666-.896.192-.253.39-.514.578-.774l.043-.06c.36-.5.702-.972.879-1.528a.506.506 0 0 0 .034-.183.515.515 0 0 0-.18-.054 1.038 1.038 0 0 0-.162-.008l-2.434-.002h-.006c-.143-.003-.203.024-.27.19a14.66 14.66 0 0 1-.471 1.088c-.354.72-.806 1.553-1.478 2.266l-.025.027c-.143.152-.409.436-.811.305a.488.488 0 0 1-.01-.004c-.442-.162-.572-.754-.567-1.02l-.002-2.785c-.014-.099-.037-.226-.077-.28-.01-.013-.038-.05-.178-.081H6.195a.499.499 0 0 0-.24.048c.366.166.598.491.665.942.095.629.107 1.295.039 2.097-.025.27-.073.484-.153.674-.125.294-.31.403-.443.442-.133.039-.347.047-.61-.133-.288-.197-.484-.473-.641-.695a13.802 13.802 0 0 1-1.52-2.816c-.091-.223-.212-.255-.317-.257a59.946 59.946 0 0 0-2.18.001.547.547 0 0 0-.156.02Z" />
    <path d="M2.04 5.764a.319.319 0 0 1-.284-.175 34.566 34.566 0 0 1-.142-.284.319.319 0 1 1 .571-.282l.14.278a.319.319 0 0 1-.285.463ZM4.067 9.116a.318.318 0 0 1-.256-.13 21.782 21.782 0 0 1-1.54-2.421.319.319 0 0 1 .558-.309c.483.874.972 1.643 1.495 2.352a.319.319 0 0 1-.257.508Z" />
  </g>
  <defs>
    <clipPath id="a">
      <path fill="#fff" d="M0 0h16v16H0z" />
    </clipPath>
  </defs>
</svg>