<svg width="16" height="16" viewBox="0 0 16 16" fill="none" xmlns="http://www.w3.org/2000/svg">
<path d="M10.913 14.9303H5.08716C2.88181 14.9303 1.08765 13.1361 1.08765 10.9308V5.06887C1.08765 2.8635 2.88181 1.06934 5.08716 1.06934H10.913C13.1183 1.06934 14.9125 2.8635 14.9125 5.06887V10.9308C14.9125 13.1361 13.1183 14.9303 10.913 14.9303ZM5.08716 2.71294C3.78807 2.71294 2.73122 3.76979 2.73122 5.06887V10.9308C2.73122 12.2299 3.78807 13.2867 5.08716 13.2867H10.913C12.2121 13.2867 13.2689 12.2299 13.2689 10.9308V5.06887C13.2689 3.76979 12.2121 2.71294 10.913 2.71294H5.08716Z" fill="white"/>
<path d="M8.00001 11.4292C6.10912 11.4292 4.5708 9.89081 4.5708 7.99999C4.5708 6.10912 6.10915 4.5708 8.00001 4.5708C9.89086 4.5708 11.4292 6.10915 11.4292 7.99999C11.4292 9.89084 9.89089 11.4292 8.00001 11.4292ZM8.00001 6.17405C6.9932 6.17405 6.17406 6.99316 6.17406 7.99999C6.17406 9.00683 6.99317 9.82594 8.00001 9.82594C9.00684 9.82594 9.82595 9.00683 9.82595 7.99999C9.82595 6.99316 9.00681 6.17405 8.00001 6.17405Z" fill="white"/>
<path d="M11.51 5.09511C11.1761 5.09511 10.9045 4.82353 10.9045 4.48969C10.9045 4.15586 11.1761 3.88428 11.51 3.88428C11.8438 3.88428 12.1154 4.15586 12.1154 4.48969C12.1154 4.82353 11.8438 5.09511 11.51 5.09511Z" fill="white"/>
<path d="M10.913 15.2179H5.08712C2.72321 15.2179 0.800049 13.2947 0.800049 10.9308V5.06884C0.800049 2.7049 2.72321 0.781738 5.08712 0.781738H10.913C13.2769 0.781738 15.2 2.7049 15.2 5.06884V10.9308C15.2 13.2947 13.2769 15.2179 10.913 15.2179ZM5.08712 1.35687C3.04032 1.35687 1.37518 3.02202 1.37518 5.06881V10.9308C1.37518 12.9776 3.04032 14.6427 5.08712 14.6427H10.913C12.9597 14.6427 14.6249 12.9776 14.6249 10.9308V5.06884C14.6249 3.02204 12.9597 1.3569 10.913 1.3569H5.08712V1.35687ZM10.913 13.5743H5.08712C3.62947 13.5743 2.44362 12.3884 2.44362 10.9308V5.06884C2.44362 3.61119 3.62947 2.42537 5.08712 2.42537H10.913C12.3706 2.42537 13.5564 3.61122 13.5564 5.06884V10.9308C13.5564 12.3884 12.3706 13.5743 10.913 13.5743ZM5.08712 3.00047C3.94661 3.00047 3.01876 3.92833 3.01876 5.06881V10.9308C3.01876 12.0713 3.94661 12.9991 5.08712 12.9991H10.913C12.0535 12.9991 12.9813 12.0713 12.9813 10.9308V5.06884C12.9813 3.92836 12.0535 3.0005 10.913 3.0005H5.08712V3.00047Z" fill="white"/>
<path d="M7.99997 11.7168C5.95052 11.7168 4.2832 10.0494 4.2832 8C4.2832 5.95055 5.95055 4.2832 7.99997 4.2832C10.0494 4.2832 11.7167 5.95055 11.7167 8C11.7167 10.0494 10.0494 11.7168 7.99997 11.7168ZM7.99997 4.85836C6.26769 4.85836 4.85836 6.26769 4.85836 8C4.85836 9.73228 6.26769 11.1416 7.99997 11.1416C9.73225 11.1416 11.1416 9.73228 11.1416 8C11.1416 6.26769 9.73227 4.85836 7.99997 4.85836ZM7.99997 10.1135C6.83459 10.1135 5.88646 9.16538 5.88646 8C5.88646 6.83462 6.83459 5.88649 7.99997 5.88649C9.16535 5.88649 10.1135 6.83462 10.1135 8C10.1135 9.16538 9.16537 10.1135 7.99997 10.1135ZM7.99997 6.46162C7.15171 6.46162 6.46159 7.15173 6.46159 8C6.46159 8.84826 7.15171 9.53837 7.99997 9.53837C8.84823 9.53837 9.53835 8.84826 9.53835 8C9.53835 7.15171 8.84823 6.46162 7.99997 6.46162Z" fill="white"/>
<path d="M11.51 5.38272C11.0176 5.38272 10.6169 4.98215 10.6169 4.48971C10.6169 3.99728 11.0176 3.59668 11.51 3.59668C12.0024 3.59668 12.403 3.99731 12.403 4.48971C12.403 4.98212 12.0024 5.38272 11.51 5.38272ZM11.51 4.17184C11.3347 4.17184 11.1921 4.31442 11.1921 4.48971C11.1921 4.66498 11.3347 4.80756 11.51 4.80756C11.6852 4.80756 11.8278 4.66498 11.8278 4.48971C11.8279 4.31445 11.6853 4.17184 11.51 4.17184Z" fill="white"/>
<path d="M7.53983 14.4125H4.83664C4.67781 14.4125 4.54907 14.2838 4.54907 14.125C4.54907 13.9661 4.67781 13.8374 4.83664 13.8374H7.53983C7.69865 13.8374 7.8274 13.9661 7.8274 14.125C7.8274 14.2838 7.69865 14.4125 7.53983 14.4125Z" fill="white"/>
<path d="M8.63273 14.4125H8.46017C8.30138 14.4125 8.17261 14.2838 8.17261 14.125C8.17261 13.9661 8.30138 13.8374 8.46017 13.8374H8.63273C8.79153 13.8374 8.9203 13.9661 8.9203 14.125C8.9203 14.2838 8.79156 14.4125 8.63273 14.4125Z" fill="white"/>
</svg>
